<svg xmlns="http://www.w3.org/2000/svg"  viewBox="0 0 120 120" width="120px" height="120px" baseProfile="basic"><polygon points="17,26 19.018,31.482 19.018,92.482 16.018,97.482 36.018,97.482 33.018,92.482 33.018,31.482 32,26" opacity=".35"/><polygon points="44,20 45.982,25 45.982,96 42.982,101 62.982,101 59.982,96 59.982,25 58.155,20" opacity=".35"/><path d="M82.977,23.75L99,18l12.304,15.144l-4.014,25.886c0,0-3.577,3.998-11.291,4.97l-6-9h3l4,4l3.97-3.97 l-2.348-31.594c0,0-7.364,1.932-15.691,4.235L82.977,23.75z" opacity=".35"/><polygon fill="#ffc400" points="20,22.482 22,27.482 22,88.482 19,93.482 39,93.482 36,88.482 36,27.482 38,22.482"/><polygon fill="#ffc400" points="47,16 49,21 49,92 46,97 66,97 63,92 63,21 65,16"/><path d="M68.839,15l6.707,38.968l-3.141-1.347L72,51c-7-4.551-21,0-21,0c-10,7-16,13-22,13c-8,0-18-8-18-8 s4-4,7-6c-5,0-11.312,2.48-11,3l4,7c4.064,4.017,10.445,9.083,17.566,9.083c10,0,11.966-4.059,26-12 c5.298-2.998,10.471-3.281,13.982-2.956L77,77l-8.923-3l11.564,42l2.14-26.305L86,95V70l4,8V15H68.839z" opacity=".35"/><path fill="#ffc400" d="M54.566,53.083c-14.188,7.661-16,12-26,12C21.445,65.083,15.064,60.017,11,56l-4-7 c-0.312-0.52,6-3,11-3c-3,2-7,6-7,6s10,8,18,8c6,0,12-6,22-13c0,0,12-4.551,19,0l2,4C72,51,62.918,48.574,54.566,53.083z"/><polygon fill="#ffc400" points="72,11 77,51 70,47 77,73 71,70 80,112 82.196,85.652 86,91 86,66 90,74 90,11"/><path fill="#ffc400" d="M82.977,19.75L99,14l13,16l-4,25c0,0-4.286,4.028-12,5l-6-9h3l4,4l3-3l-2.04-32.25 c0,0-6.702,1.618-15.03,3.921L82.977,19.75z"/></svg>